<?xml version="1.0" encoding="utf-8"?>
<!-- Generator: Adobe Illustrator 26.0.2, SVG Export Plug-In . SVG Version: 6.00 Build 0)  -->
<svg version="1.1" id="Layer_1" xmlns="http://www.w3.org/2000/svg" xmlns:xlink="http://www.w3.org/1999/xlink" x="0px" y="0px"
	 viewBox="0 0 140 152" style="enable-background:new 0 0 140 152;" xml:space="preserve">
<style type="text/css">
	.st0{fill:#8BA7FF;}
</style>
<path class="st0" d="M130.9,1.3l-29.2,17.9L70,38.6L38.4,19.2L9.1,1.3C5.1-1.2,0,0.7,0,5.4v76.3c0,38.7,31.3,70,70,70s70-31.3,70-70
	V5.4C140,0.7,134.9-1.2,130.9,1.3z M91.2,105.9c2.3,2.3,2.3,6.1,0,8.5c-1.2,1.2-2.7,1.8-4.2,1.8s-3.1-0.6-4.2-1.8L70,101.6
	l-12.8,12.8c-1.2,1.2-2.7,1.8-4.2,1.8s-3.1-0.6-4.2-1.8c-2.3-2.3-2.3-6.1,0-8.5l12.8-12.8L48.8,80.4c-2.3-2.3-2.3-6.1,0-8.5
	c2.3-2.3,6.1-2.3,8.5,0L70,84.7l12.8-12.8c2.3-2.3,6.1-2.3,8.5,0c2.3,2.3,2.3,6.1,0,8.5L78.5,93.1L91.2,105.9z"/>
</svg>
